<svg width="424" height="284" viewBox="0 0 424 284" fill="none" xmlns="http://www.w3.org/2000/svg">
<path d="M246 231H233C226.925 231 222 235.925 222 242V265C222 271.075 226.925 276 233 276H246C252.075 276 257 271.075 257 265V242C257 235.925 252.075 231 246 231Z" fill="#545AEE"/>
<path d="M246 218H233C226.925 218 222 222.925 222 229V252C222 258.075 226.925 263 233 263H246C252.075 263 257 258.075 257 252V229C257 222.925 252.075 218 246 218Z" fill="#7479F1"/>
<path d="M249 188.5C249 183.253 244.747 179 239.5 179C234.253 179 230 183.253 230 188.5V239.5C230 244.747 234.253 249 239.5 249C244.747 249 249 244.747 249 239.5V188.5Z" fill="#545AEE"/>
<path d="M174 239H161C154.925 239 150 243.925 150 250V273C150 279.075 154.925 284 161 284H174C180.075 284 185 279.075 185 273V250C185 243.925 180.075 239 174 239Z" fill="#545AEE"/>
<path d="M174 228H161C154.925 228 150 232.925 150 239V262C150 268.075 154.925 273 161 273H174C180.075 273 185 268.075 185 262V239C185 232.925 180.075 228 174 228Z" fill="#7479F1"/>
<path d="M108.165 79.5002C108.165 79.5002 63.932 74.4782 30.978 39.1702" stroke="#545AEE" stroke-width="12" stroke-linecap="round"/>
<path d="M17.211 11.6121L22.244 16.4771L25.024 13.6011C27.1785 11.3722 31.0466 10.1043 34.2581 11.8178C34.5455 11.9544 34.7949 12.1597 34.9842 12.4155C35.1736 12.6712 35.2971 12.9697 35.3438 13.2845C35.3975 13.5911 35.3768 13.9062 35.2834 14.2032C35.19 14.5001 35.0266 14.7703 34.807 14.9909L30.9845 18.9454L30.1315 27.022L19.359 38.1665L17.2979 37.565C15.2952 36.8952 13.4653 35.7913 11.939 34.3321L4.74896 27.3821C3.97242 26.6162 3.49331 25.5992 3.39715 24.5127C3.30099 23.4262 3.59402 22.3409 4.22396 21.4505L11.4855 11.78L11.555 11.7081C12.2939 10.9482 13.3034 10.5116 14.3632 10.4937C15.4229 10.4757 16.4467 10.8778 17.211 11.6121Z" fill="#545AEE"/>
<path d="M33.053 28.3161L35.929 31.0961C36.0305 31.183 36.1124 31.2905 36.1693 31.4115C36.2261 31.5324 36.2567 31.664 36.259 31.7977C36.2613 31.9313 36.2352 32.0639 36.1824 32.1867C36.1297 32.3095 36.0515 32.4197 35.953 32.5101L24.138 44.7331C24.051 44.8346 23.9435 44.9165 23.8226 44.9733C23.7016 45.0302 23.57 45.0608 23.4364 45.0631C23.3027 45.0654 23.1701 45.0393 23.0473 44.9865C22.9245 44.9338 22.8143 44.8555 22.724 44.7571L19.848 41.9771C19.7465 41.8901 19.6646 41.7826 19.6077 41.6617C19.5508 41.5407 19.5202 41.4091 19.5179 41.2755C19.5157 41.1418 19.5418 41.0092 19.5945 40.8864C19.6473 40.7636 19.7255 40.6534 19.824 40.5631L31.639 28.3401C31.7259 28.2386 31.8334 28.1567 31.9544 28.0998C32.0753 28.0429 32.2069 28.0123 32.3406 28.01C32.4742 28.0078 32.6068 28.0339 32.7296 28.0866C32.8524 28.1394 32.9626 28.2176 33.053 28.3161Z" fill="#545AEE"/>
<path d="M299 79.5002C299 79.5002 352.376 74.4782 392.142 39.1702" stroke="#545AEE" stroke-width="12" stroke-linecap="round"/>
<path d="M408.273 13.0048L402.988 17.5968L400.48 14.7104C399.407 13.4652 397.963 12.5973 396.36 12.2347C394.756 11.872 393.079 12.0337 391.575 12.696C391.284 12.8204 391.026 13.0117 390.822 13.2546C390.619 13.4974 390.476 13.7849 390.404 14.0935C390.328 14.3846 390.324 14.6901 390.394 14.983C390.463 15.2759 390.604 15.5471 390.803 15.7727L394.252 19.7417L394.49 27.6401L404.209 38.8261L406.27 38.3015C408.289 37.7033 410.158 36.6837 411.754 35.3101L419.304 28.7501C420.116 28.0549 420.657 27.0953 420.831 26.0404C421.005 24.9854 420.801 23.9029 420.256 22.9835L413.862 13.3381L413.797 13.2626C413.096 12.4998 412.123 12.0447 411.088 11.9964C410.053 11.9481 409.042 12.3105 408.273 13.0048Z" fill="#545AEE"/>
<path d="M390.985 28.1812L387.965 30.8052C387.859 30.8867 387.771 30.9897 387.708 31.1075C387.645 31.2252 387.607 31.3551 387.598 31.4884C387.588 31.6218 387.608 31.7556 387.654 31.881C387.7 32.0065 387.772 32.1207 387.866 32.2162L399.018 45.0512C399.099 45.1572 399.202 45.2447 399.32 45.3079C399.438 45.3712 399.568 45.4087 399.701 45.4181C399.834 45.4274 399.968 45.4084 400.094 45.3622C400.219 45.316 400.333 45.2438 400.429 45.1502L403.449 42.5262C403.555 42.4447 403.642 42.3417 403.705 42.2239C403.769 42.1062 403.806 41.9763 403.816 41.843C403.825 41.7096 403.806 41.5758 403.76 41.4503C403.714 41.3249 403.641 41.2107 403.548 41.1152L392.396 28.2802C392.314 28.1742 392.211 28.0867 392.093 28.0235C391.976 27.9602 391.846 27.9227 391.712 27.9133C391.579 27.904 391.445 27.923 391.32 27.9692C391.194 28.0154 391.08 28.0876 390.985 28.1812Z" fill="#545AEE"/>
<path d="M299 79.5002C299 79.5002 352.376 74.4782 392.142 39.1702" stroke="white" stroke-width="3" stroke-linecap="round"/>
<path d="M279 21H124C114.059 21 106 29.0589 106 39V181C106 190.941 114.059 199 124 199H279C288.941 199 297 190.941 297 181V39C297 29.0589 288.941 21 279 21Z" fill="#474DFF"/>
<path d="M177 188.5C177 183.253 172.747 179 167.5 179C162.253 179 158 183.253 158 188.5V239.5C158 244.747 162.253 249 167.5 249C172.747 249 177 244.747 177 239.5V188.5Z" fill="#545AEE"/>
<path d="M176.5 99C181.747 99 186 94.7467 186 89.5C186 84.2533 181.747 80 176.5 80C171.253 80 167 84.2533 167 89.5C167 94.7467 171.253 99 176.5 99Z" fill="white"/>
<path d="M229.5 99C234.747 99 239 94.7467 239 89.5C239 84.2533 234.747 80 229.5 80C224.253 80 220 84.2533 220 89.5C220 94.7467 224.253 99 229.5 99Z" fill="white"/>
<path d="M231.955 134.5C228.087 138.369 223.495 141.437 218.441 143.531C213.387 145.624 207.97 146.702 202.5 146.702C197.029 146.702 191.613 145.624 186.559 143.531C181.505 141.437 176.913 138.369 173.045 134.5" stroke="white" stroke-width="12" stroke-miterlimit="10" stroke-linecap="round"/>
<path opacity="0.11" d="M131 71.5C131 67.3579 127.642 64 123.5 64C119.358 64 116 67.3579 116 71.5V176.5C116 180.642 119.358 184 123.5 184C127.642 184 131 180.642 131 176.5V71.5Z" fill="white"/>
<path opacity="0.11" d="M290 71.5C290 67.3579 286.642 64 282.5 64C278.358 64 275 67.3579 275 71.5V176.5C275 180.642 278.358 184 282.5 184C286.642 184 290 180.642 290 176.5V71.5Z" fill="white"/>
<path d="M279.5 21H123.5C113.835 21 106 28.835 106 38.5C106 48.165 113.835 56 123.5 56H279.5C289.165 56 297 48.165 297 38.5C297 28.835 289.165 21 279.5 21Z" fill="#474DFF"/>
<path d="M279.5 23.5H123.5C115.216 23.5 108.5 30.2157 108.5 38.5C108.5 46.7843 115.216 53.5 123.5 53.5H279.5C287.784 53.5 294.5 46.7843 294.5 38.5C294.5 30.2157 287.784 23.5 279.5 23.5Z" stroke="#8D91FB" stroke-width="5"/>
<path opacity="0.5" d="M30.7 39.9241C30.7 39.9241 68.406 78.6241 109.427 78.6241" stroke="white" stroke-width="3" stroke-linecap="round"/>
</svg>
